PathFileType	4	(X/Y/Z)	output.trc
DataRate	CameraRate	NumFrames	NumMarkers	Units	OrigDataRate	OrigDataStartFrame	OrigNumFrames
200	200	5	66	mm	200	259	295
Frame#	Time			LASI			RASI			RSACR			LSACR			USACR			LBAR			RBAR			RHEE			RMT1			RMT5			RMT2			LHEE			LMT1			LMT5			LMT2			LMMAL			LMFC			LLFC			LLMAL			LTIB4			LTIB2			LTIB3			LTIB1			RMMAL			RMFC			RLFC			RLMAL			RTIB1			RTIB2			RTIB3			RTHI1			RTHI4			RTHI3			RTHI2			LTHI1			LTHI4			LTHI3			LTHI2			FHD			LBHD			RBHD			C7			T10			CLAV			LSHO			RSHO			LRAD			LUL			LRFIN			RRAD			RUL			RUFIN			RLEP			RMEP			LLEP			LMEP			LDUPA			LMUPA			LUUPA			RDUPA			RUUPA			RMUPA			RKJC			LKJC			LAKJC			RAKJC
		X1	Y1	Z1	X2	Y2	Z2	X3	Y3	Z3	X4	Y4	Z4	X5	Y5	Z5	X6	Y6	Z6	X7	Y7	Z7	X8	Y8	Z8	X9	Y9	Z9	X10	Y10	Z10	X11	Y11	Z11	X12	Y12	Z12	X13	Y13	Z13	X14	Y14	Z14	X15	Y15	Z15	X16	Y16	Z16	X17	Y17	Z17	X18	Y18	Z18	X19	Y19	Z19	X20	Y20	Z20	X21	Y21	Z21	X22	Y22	Z22	X23	Y23	Z23	X24	Y24	Z24	X25	Y25	Z25	X26	Y26	Z26	X27	Y27	Z27	X28	Y28	Z28	X29	Y29	Z29	X30	Y30	Z30	X31	Y31	Z31	X32	Y32	Z32	X33	Y33	Z33	X34	Y34	Z34	X35	Y35	Z35	X36	Y36	Z36	X37	Y37	Z37	X38	Y38	Z38	X39	Y39	Z39	X40	Y40	Z40	X41	Y41	Z41	X42	Y42	Z42	X43	Y43	Z43	X44	Y44	Z44	X45	Y45	Z45	X46	Y46	Z46	X47	Y47	Z47	X48	Y48	Z48	X49	Y49	Z49	X50	Y50	Z50	X51	Y51	Z51	X52	Y52	Z52	X53	Y53	Z53	X54	Y54	Z54	X55	Y55	Z55	X56	Y56	Z56	X57	Y57	Z57	X58	Y58	Z58	X59	Y59	Z59	X60	Y60	Z60	X61	Y61	Z61	X62	Y62	Z62	X63	Y63	Z63	X64	Y64	Z64	X65	Y65	Z65	X66	Y66	Z66
258	1.290000	134.572220	762.184753	918.416443	130.554047	984.598877	918.993774	310.278229	912.231079	949.972473	309.382507	852.371399	953.239258	298.630768	882.230042	966.369019	1270.850342	-346.475006	26.313471	1226.416504	1876.926758	26.274328	323.080383	1019.649963	39.829651	128.178955	1043.332397	43.446293	165.072449	1113.683960	34.820820	140.176376	1079.963989	42.698120	326.270447	745.158875	45.818012	134.400055	736.448181	46.330791	170.026230	662.796936	33.370056	143.188370	698.033508	45.919651	276.708923	778.686462	72.936722	233.164551	829.028381	456.929108	219.463852	721.402100	454.019409	278.824127	700.953796	69.134102	290.366760	691.435913	209.557358	314.066742	691.355164	270.883301	263.565094	684.483093	268.138519	301.768951	686.984924	314.270538	275.193909	994.065491	68.358932	235.555481	935.376648	446.571869	220.925400	1041.267456	461.350433	284.690155	1068.613159	72.236816	257.334229	1082.705078	319.252441	307.783051	1077.166626	313.959656	276.784424	1081.311646	256.126038	242.558350	1060.013916	783.840515	243.188446	1064.881836	635.075562	191.925903	1066.616577	637.097656	219.711319	1070.191772	697.180847	239.017914	698.641174	778.927734	236.769577	694.972595	646.593628	186.114334	693.391907	637.568481	200.637375	689.178223	701.318176	131.243210	775.480774	1592.923218	242.049683	786.277527	1575.927002	253.808548	909.707947	1571.227661	264.011536	857.886841	1391.452881	286.673096	877.330627	1007.453796	142.091690	872.718140	1328.431152	245.758636	725.209412	1381.045166	237.686768	986.654907	1397.163452	167.605072	222.717361	1358.108032	208.243835	222.367477	1353.825806	154.396988	130.718216	1337.313843	243.074738	1500.462524	1391.818481	289.966675	1499.498291	1385.756348	237.518311	1590.627441	1394.281616	294.945251	1271.266235	1331.518433	256.801910	1271.988525	1297.889893	223.030411	454.256927	1300.296021	182.119843	466.839783	1277.901855	239.007385	506.210052	1354.021606	203.035507	536.688110	1371.577026	239.881180	585.471558	1362.591919	267.745026	1205.502686	1383.618774	258.359253	1143.814331	1385.007080	217.546875	1212.104736	1386.579346	228.240448	988.322021	453.961151	226.314209	775.215210	455.474243	277.766541	739.820129	71.035416	279.942017	1031.339355	70.297874
259	1.295000	134.583099	762.195129	918.419739	130.569183	984.614319	918.995300	310.296082	912.237976	949.978149	309.401825	852.379089	953.244751	298.641693	882.242554	966.368164	1270.822998	-346.496124	26.288324	1226.400635	1876.936523	26.294437	323.085938	1019.635559	39.833103	128.187531	1043.329224	43.449986	165.080200	1113.686646	34.819954	140.176361	1079.973877	42.698498	326.271545	745.153687	45.809128	134.401123	736.443542	46.333702	170.028214	662.791016	33.375854	143.188187	698.030090	45.916023	276.702881	778.671936	72.938400	233.158447	829.033325	456.935364	219.461639	721.409241	454.020111	278.821136	700.951416	69.118896	290.377045	691.433960	209.555878	314.066376	691.364807	270.886688	263.575500	684.472778	268.141876	301.774353	686.978760	314.281860	275.196533	994.071350	68.354767	235.567764	935.374146	446.567322	220.923492	1041.266724	461.359253	284.688751	1068.613281	72.229935	257.326477	1082.707397	319.260284	307.774017	1077.168213	313.962097	276.780457	1081.332153	256.121094	242.579926	1060.015625	783.837585	243.224045	1064.873901	635.060913	191.935760	1066.654297	637.098877	219.827179	1070.139648	697.090088	239.029770	698.651733	778.924927	236.775192	694.986084	646.591309	186.119766	693.411804	637.571960	200.650360	689.198242	701.305420	131.255859	775.479431	1592.919556	242.047836	786.266602	1575.932251	253.800552	909.692017	1571.220825	264.017365	857.883911	1391.456299	286.688080	877.334351	1007.455627	142.105453	872.707092	1328.443115	245.766235	725.218689	1381.050415	237.683990	986.655701	1397.167847	167.666519	222.706329	1358.156250	208.292175	222.363113	1353.879883	154.464752	130.708862	1337.374268	243.112854	1500.458496	1391.824951	290.015015	1499.492065	1385.759277	237.566986	1590.626221	1394.291138	294.970032	1271.244141	1331.532349	256.821564	1271.990601	1297.894165	223.055786	454.246185	1300.318237	182.146164	466.832245	1277.927856	238.978149	506.256989	1353.949585	203.061920	536.684021	1371.595093	239.889725	585.466431	1362.595215	267.750458	1205.498901	1383.636963	258.375946	1143.807495	1385.019043	217.572617	1212.106445	1386.588135	228.245636	988.320435	453.963287	226.310043	775.221313	455.477722	277.762024	739.811646	71.028648	279.942627	1031.342285	70.292351
260	1.300000	134.598679	762.207275	918.428711	130.581146	984.617615	918.995483	310.309662	912.242615	949.972961	309.424561	852.375977	953.246582	298.667175	882.239502	966.371094	1270.821045	-346.474731	26.282936	1226.396362	1876.952637	26.299570	323.079437	1019.637024	39.835934	128.179550	1043.327393	43.459702	165.013840	1113.803955	34.985703	140.180786	1079.967529	42.698864	326.265442	745.155579	45.809109	134.403519	736.450195	46.331455	170.029495	662.801392	33.370846	143.182602	698.029175	45.921692	276.701294	778.679504	72.940987	233.166794	829.042725	456.937042	219.475128	721.411316	454.022186	278.824005	700.962646	69.121765	290.364410	691.436462	209.551804	314.078186	691.353149	270.864716	263.579803	684.480225	268.140625	301.788483	686.985107	314.273529	275.202301	994.081665	68.356667	235.571472	935.390930	446.574921	220.945145	1041.269287	461.352112	284.685028	1068.616821	72.237854	257.351166	1082.703979	319.252930	307.801056	1077.170776	313.961273	276.786926	1081.334839	256.113861	242.579041	1060.025879	783.854004	243.230896	1064.883667	635.083435	191.969803	1066.611328	637.116516	219.835358	1070.148804	697.086853	239.046280	698.671692	778.936646	236.666077	694.614746	646.556213	186.126785	693.416870	637.572632	200.656860	689.221680	701.310547	131.250488	775.469604	1592.916260	242.044876	786.259888	1575.935791	253.809586	909.690369	1571.236938	264.016083	857.879822	1391.465210	286.698517	877.344177	1007.461243	142.122406	872.693604	1328.463135	245.779236	725.214966	1381.067017	237.670731	986.658813	1397.176025	167.716217	222.705719	1358.199219	208.340088	222.360764	1353.934204	154.510010	130.688461	1337.444458	243.153839	1500.452881	1391.836426	290.053589	1499.477417	1385.768555	237.612350	1590.623657	1394.295166	294.987976	1271.250000	1331.539307	256.837860	1271.988525	1297.901489	223.072021	454.252380	1300.344604	182.156387	466.828888	1277.958252	239.018555	506.259521	1353.963867	203.064789	536.680115	1371.627441	239.975235	585.448669	1362.586182	267.764008	1205.489502	1383.655396	258.382904	1143.802856	1385.030273	217.572327	1212.098145	1386.581177	228.258301	988.330078	453.963501	226.320953	775.227051	455.479614	277.762634	739.821045	71.031372	279.943665	1031.349243	70.297256
261	1.305000	134.608551	762.231323	918.431335	130.599426	984.626160	918.992798	310.323792	912.262695	949.985840	309.438751	852.386414	953.248718	298.693542	882.256775	966.376099	1270.832642	-346.463684	26.289860	1226.396606	1876.934937	26.290318	323.077240	1019.641785	39.832577	128.170776	1043.348145	43.446522	165.079102	1113.687500	34.824413	140.165833	1079.968506	42.693878	326.264130	745.160217	45.806320	134.400726	736.448486	46.331276	170.010635	662.787781	33.387077	143.183350	698.030090	45.922295	276.704346	778.680969	72.940216	233.176865	829.045471	456.954071	219.491684	721.412598	454.022095	278.802612	700.953979	69.123680	290.390625	691.448669	209.549759	314.095978	691.361694	270.865601	263.582764	684.483582	268.142822	301.781952	686.966797	314.307373	275.193726	994.069580	68.350792	235.583801	935.387207	446.576508	220.954239	1041.282349	461.354797	284.686737	1068.617310	72.238228	257.355927	1082.717163	319.264496	307.809448	1077.169067	313.952698	276.803986	1081.341431	256.127594	242.604675	1060.026001	783.838379	243.253021	1064.869385	635.082275	191.977951	1066.632446	637.107727	219.848969	1070.158203	697.080994	239.063385	698.685730	778.934631	236.802444	695.035278	646.606628	186.143295	693.425110	637.572571	200.671799	689.232300	701.318787	131.252365	775.460876	1592.914917	242.045105	786.258972	1575.942993	253.799881	909.682739	1571.234497	264.014160	857.886597	1391.463501	286.722168	877.355286	1007.465454	142.127029	872.693420	1328.476440	245.795334	725.214111	1381.104614	237.673447	986.656738	1397.181396	167.758118	222.699829	1358.247925	208.375687	222.368484	1353.980225	154.552551	130.680710	1337.516357	243.195389	1500.455688	1391.836548	290.094482	1499.478394	1385.765747	237.662308	1590.628784	1394.297852	295.002899	1271.237183	1331.549927	256.853302	1271.983643	1297.909424	223.098694	454.247528	1300.367676	182.180420	466.819061	1277.988770	239.044907	506.246521	1353.985840	203.077179	536.681641	1371.636475	239.946823	585.458130	1362.659668	267.777679	1205.498169	1383.666870	258.392792	1143.797729	1385.043091	217.586121	1212.085205	1386.584839	228.269012	988.334778	453.965637	226.334274	775.229004	455.488098	277.753479	739.817505	71.031952	279.940247	1031.343506	70.294510
262	1.310000	134.631073	762.241333	918.434021	130.608551	984.641907	918.996887	310.339172	912.258850	949.983337	309.460846	852.392883	953.245422	298.688995	882.263550	966.375000	1270.817749	-346.485504	26.273706	1226.373901	1876.945679	26.294846	323.072510	1019.626282	39.829166	128.179596	1043.341309	43.438686	165.067322	1113.689209	34.822300	140.172775	1079.972656	42.699444	326.264221	745.155579	45.807968	134.409012	736.446472	46.329834	170.017746	662.800903	33.376614	143.185928	698.028137	45.916847	276.706604	778.679443	72.945396	233.185974	829.047729	456.942719	219.499252	721.419922	454.027313	278.816772	700.950439	69.116951	290.379364	691.446106	209.546753	314.086853	691.368530	270.862366	263.585632	684.487000	268.130524	301.738312	687.004211	314.319977	275.197845	994.064270	68.357491	235.601639	935.389282	446.579376	220.969955	1041.285645	461.349854	284.685486	1068.625244	72.238541	257.358276	1082.709351	319.259583	307.821533	1077.166626	313.952301	276.808197	1081.347412	256.128906	242.592178	1060.035767	783.836121	243.276627	1064.886963	635.073547	191.994064	1066.645630	637.120789	219.775818	1070.221924	697.189514	239.079895	698.698547	778.937500	236.848679	694.457703	646.830688	186.160477	693.432190	637.577942	200.698151	689.240112	701.309387	131.251770	775.456360	1592.902222	242.044373	786.251404	1575.940430	253.805649	909.685791	1571.244263	264.025208	857.885498	1391.467163	286.733124	877.361267	1007.467163	142.146973	872.679749	1328.494263	245.793335	725.215515	1381.109375	237.674500	986.650635	1397.183350	167.791199	222.632797	1358.429932	208.411163	222.363846	1354.013428	154.604706	130.674210	1337.576904	243.229462	1500.459351	1391.844482	290.137878	1499.466187	1385.759766	237.726807	1590.631348	1394.295288	295.010315	1271.234497	1331.553955	256.861450	1271.986816	1297.916504	223.124344	454.247528	1300.391602	182.196732	466.815002	1278.017578	239.065796	506.255859	1354.006958	203.082947	536.681885	1371.660767	239.918304	585.637085	1362.415405	267.781128	1205.497192	1383.675781	258.396271	1143.799683	1385.050659	217.598312	1212.097290	1386.587891	228.285797	988.337463	453.964600	226.342621	775.233826	455.485016	277.761688	739.814941	71.031174	279.941650	1031.344727	70.298019
